<svg xmlns="http://www.w3.org/2000/svg" viewBox="0 0 200 200">
  <defs>
    <mask id="leaf-mask">
      <rect width="100%" height="100%" fill="white"/>
      <path d="M100 50 Q100 95 100 140" stroke="black" stroke-width="8" fill="none" stroke-linecap="round"/>
      <path d="M100 90 L130 75" stroke="black" stroke-width="8" fill="none" stroke-linecap="round"/>
      <path d="M100 110 L70 95" stroke="black" stroke-width="8" fill="none" stroke-linecap="round"/>
      <path d="M100 70 L125 60" stroke="black" stroke-width="8" fill="none" stroke-linecap="round"/>
      <path d="M100 130 L75 120" stroke="black" stroke-width="8" fill="none" stroke-linecap="round"/>
    </mask>
  </defs>
  
  <!-- Shield Outline -->
  <path d="M100 15 L35 45 V95 C35 145 65 175 100 195 C135 175 165 145 165 95 V45 L100 15 Z" fill="none" stroke="white" stroke-width="12" stroke-linejoin="round"/>
  
  <!-- Leaf with Mask -->
  <path d="M100 55 Q140 55 140 95 Q140 145 100 145 Q60 145 60 95 Q60 55 100 55 Z" fill="white" mask="url(#leaf-mask)"/>
</svg>